#!OML:ASF G:\JayActor3\Patient Classification 1\Patient 1\Session 5\male.ASF
:FULLY-SPECIFIED
:DEGREES
342
root 37.6807 16.4651 -4.32414 95.1036 -86.2648 -97.6829
lowerback -0.165089 -0.62298 5.14216
upperback 2.26924 -0.939023 0.292689
thorax 2.35451 -0.380119 -2.60053
lowerneck -4.75055 0.0347115 2.209
upperneck 0.614823 -0.135939 1.65
head 0.975655 -0.0455523 0.136991
rclavicle -1.87292e-015 -2.24627e-014
rhumerus -29.9317 -4.50113 -85.7094
rradius 29.737
rwrist -0.988765
rhand -18.1749 -9.69987
rfingers 7.12502
rthumb 8.10155 -39.5246
lclavicle -1.87292e-015 -2.24627e-014
lhumerus -34.9692 5.28875 83.8776
lradius 28.0304
lwrist 18.0738
lhand -17.3454 13.7819
lfingers 7.12502
lthumb 8.90202 43.5741
rfemur -6.74507 3.4548 30.562
rtibia 31.0658
rfoot -22.6364 -11.3363
rtoes 6.85525
lfemur -19.9221 2.60335 -13.0588
ltibia 60.7351
lfoot -9.61677 9.02531
ltoes -12.2087
343
root 37.5702 16.4478 -4.34084 95.6943 -86.1879 -98.2715
lowerback -0.180677 -0.609812 5.23316
upperback 2.26943 -0.924119 0.297886
thorax 2.36387 -0.370758 -2.64607
lowerneck -4.76963 0.0347508 2.206
upperneck 0.66773 -0.137548 1.6645
head 0.995598 -0.0452412 0.141905
rclavicle -2.04686e-015 4.96962e-016
rhumerus -29.8753 -4.29429 -85.8509
rradius 29.944
rwrist -1.20016
rhand -18.2357 -9.49412
rfingers 7.12502
rthumb 8.0429 -39.3211
lclavicle -2.04686e-015 4.96962e-016
lhumerus -34.9591 5.28508 83.8338
lradius 27.9826
lwrist 18.0252
lhand -17.3476 13.785
lfingers 7.12502
lthumb 8.89995 43.5773
rfemur -6.34178 3.34045 30.7285
rtibia 31.1266
rfoot -22.9888 -11.2372
rtoes 6.79266
lfemur -20.8367 2.56775 -13.213
ltibia 60.0555
lfoot -10.4509 9.36097
ltoes -12.605
344
root 37.4593 16.432 -4.35703 96.1347 -86.1083 -98.7102
lowerback -0.190996 -0.600165 5.32845
upperback 2.27105 -0.913824 0.304673
thorax 2.37138 -0.363675 -2.69239
lowerneck -4.78299 0.0335935 2.19853
upperneck 0.707359 -0.140193 1.68234
head 1.0104 -0.0456543 0.148571
rclavicle -3.28927e-015 2.28602e-015
rhumerus -29.8212 -4.10165 -85.9875
rradius 30.1357
rwrist -1.38142
rhand -18.2911 -9.32308
rfingers 7.12502
rthumb 7.9894 -39.1521
lclavicle -3.28927e-015 2.28602e-015
lhumerus -34.9451 5.2953 83.7881
lradius 27.9264
lwrist 17.9649
lhand -17.3577 13.787
lfingers 7.12502
lthumb 8.89022 43.5797
rfemur -5.90522 3.21888 30.8925
rtibia 31.1289
rfoot -23.3267 -11.1339
rtoes 6.75826
lfemur -21.7039 2.54526 -13.3702
ltibia 59.2772
lfoot -11.1879 9.70261
ltoes -12.9377
345
root 37.3481 16.4176 -4.37259 96.4966 -86.0239 -99.0708
lowerback -0.195814 -0.592335 5.43339
upperback 2.27338 -0.905852 0.311554
thorax 2.37627 -0.35763 -2.744
lowerneck -4.79271 0.0321331 2.19167
upperneck 0.739028 -0.143001 1.69862
head 1.02206 -0.0463108 0.154652
rclavicle -2.91965e-016 -1.98785e-016
rhumerus -29.7639 -3.92799 -86.1204
rradius 30.3013
rwrist -1.52921
rhand -18.3422 -9.19902
rfingers 7.12502
rthumb 7.94007 -39.0299
lclavicle -2.91965e-016 -1.98785e-016
lhumerus -34.9263 5.3239 83.7363
lradius 27.8596
lwrist 17.8874
lhand -17.3744 13.7929
lfingers 7.12502
lthumb 8.87405 43.5863
rfemur -5.43112 3.0862 31.0547
rtibia 31.0623
rfoot -23.6373 -11.0295
rtoes 6.71952
lfemur -22.5168 2.54064 -13.5305
ltibia 58.3974
lfoot -11.8175 10.0483
ltoes -13.2181
346
root 37.2361 16.405 -4.38716 96.7625 -85.9391 -99.3369
lowerback -0.202568 -0.586964 5.54744
upperback 2.27985 -0.901645 0.317402
thorax 2.38615 -0.353079 -2.8019
lowerneck -4.79704 0.0317422 2.18606
upperneck 0.751192 -0.143972 1.7141
head 1.02666 -0.0464046 0.160324
rclavicle 2.08724e-015 -6.06293e-015
rhumerus -29.7011 -3.7686 -86.2491
rradius 30.4384
rwrist -1.64524
rhand -18.3859 -9.13515
rfingers 7.12502
rthumb 7.8979 -38.9676
lclavicle 2.08724e-015 -6.06293e-015
lhumerus -34.905 5.35941 83.6854
lradius 27.7909
lwrist 17.8044
lhand -17.3965 13.8032
lfingers 7.12502
lthumb 8.85272 43.5975
rfemur -4.91328 2.92995 31.2068
rtibia 30.9196
rfoot -23.915 -10.9225
rtoes 6.65106
lfemur -23.2623 2.54489 -13.7013
ltibia 57.4165
lfoot -12.3689 10.3782
ltoes -13.3233
347
root 37.1234 16.3944 -4.40096 96.9987 -85.8437 -99.5705
lowerback -0.211139 -0.582299 5.67774
upperback 2.28674 -0.898917 0.325578
thorax 2.39727 -0.348936 -2.86655
lowerneck -4.79486 0.0335276 2.18103
upperneck 0.751354 -0.141677 1.7296
head 1.02637 -0.0450916 0.165975
rclavicle 5.57839e-015 -3.97569e-016
rhumerus -29.6368 -3.62725 -86.3713
rradius 30.5471
rwrist -1.72
rhand -18.4088 -9.14101
rfingers 7.12502
rthumb 7.87582 -38.9743
lclavicle 5.57839e-015 -3.97569e-016
lhumerus -34.8844 5.40504 83.6343
lradius 27.7205
lwrist 17.7129
lhand -17.4183 13.8198
lfingers 7.12502
lthumb 8.8317 43.615
rfemur -4.35588 2.7632 31.3625
rtibia 30.6987
rfoot -24.1507 -10.8269
rtoes 6.53954
lfemur -23.9497 2.56492 -13.8705
ltibia 56.3385
lfoot -12.8292 10.7042
ltoes -13.3174
348
root 37.0099 16.3853 -4.41403 97.206 -85.7345 -99.7687
lowerback -0.230248 -0.575895 5.82574
upperback 2.29503 -0.895147 0.3378
thorax 2.41581 -0.343732 -2.93706
lowerneck -4.79195 0.0333437 2.17076
upperneck 0.744338 -0.141749 1.75205
head 1.02369 -0.0450117 0.174575
rclavicle -1.58966e-014 1.39149e-014
rhumerus -29.57 -3.50735 -86.4857
rradius 30.6285
rwrist -1.77053
rhand -18.4251 -9.15354
rfingers 7.12502
rthumb 7.86007 -38.9874
lclavicle -1.58966e-014 1.39149e-014
lhumerus -34.8551 5.45969 83.5864
lradius 27.6368
lwrist 17.6086
lhand -17.4357 13.8322
lfingers 7.12502
lthumb 8.81493 43.6281
rfemur -3.76413 2.59199 31.526
rtibia 30.4008
rfoot -24.3466 -10.7516
rtoes 6.36822
lfemur -24.5843 2.60144 -14.0355
ltibia 55.1714
lfoot -13.2334 11.0063
ltoes -13.3004
349
root 36.8955 16.3776 -4.42645 97.3675 -85.6085 -99.9128
lowerback -0.262898 -0.568145 5.9924
upperback 2.30532 -0.891274 0.356305
thorax 2.44406 -0.337855 -3.0117
lowerneck -4.79476 0.03159 2.16174
upperneck 0.734791 -0.144069 1.77169
head 1.02119 -0.0461095 0.182053
rclavicle -1.50331e-015 -1.80894e-014
rhumerus -29.4987 -3.40599 -86.5913
rradius 30.6794
rwrist -1.80024
rhand -18.436 -9.14779
rfingers 7.12502
rthumb 7.84953 -38.9821
lclavicle -1.50331e-015 -1.80894e-014
lhumerus -34.8207 5.51672 83.5464
lradius 27.5499
lwrist 17.4998
lhand -17.4504 13.8508
lfingers 7.12502
lthumb 8.80076 43.6473
rfemur -3.14147 2.41836 31.7012
rtibia 30.031
rfoot -24.4924 -10.6826
rtoes 6.17731
lfemur -25.1711 2.65614 -14.1924
ltibia 53.9244
lfoot -13.5871 11.2758
ltoes -13.3186
350
root 36.7804 16.3709 -4.43848 97.4583 -85.4561 -99.9723
lowerback -0.308753 -0.558875 6.18381
upperback 2.31441 -0.887256 0.385271
thorax 2.47854 -0.331355 -3.08954
lowerneck -4.81163 0.0282649 2.14627
upperneck 0.732831 -0.148761 1.79423
head 1.0235 -0.0481885 0.19144
rclavicle -6.64686e-015 1.98785e-015
rhumerus -29.4256 -3.31991 -86.6877
rradius 30.7032
rwrist -1.81475
rhand -18.4399 -9.1335
rfingers 7.12502
rthumb 7.84573 -38.9679
lclavicle -6.64686e-015 1.98785e-015
lhumerus -34.7822 5.57643 83.5157
lradius 27.4597
lwrist 17.3905
lhand -17.4615 13.8777
lfingers 7.12502
lthumb 8.79001 43.6746
rfemur -2.50023 2.25393 31.9026
rtibia 29.599
rfoot -24.5981 -10.6223
rtoes 5.99225
lfemur -25.7249 2.73346 -14.3286
ltibia 52.6084
lfoot -13.8907 11.4985
ltoes -13.3234
351
root 36.6647 16.3647 -4.45017 97.4475 -85.2835 -99.9191
lowerback -0.368899 -0.546651 6.39556
upperback 2.32279 -0.881206 0.420126
thorax 2.52055 -0.323237 -3.17277
lowerneck -4.83931 0.0202017 2.14177
upperneck 0.741155 -0.160695 1.80668
head 1.03089 -0.0537702 0.195743
rclavicle -6.50399e-015 1.45113e-014
rhumerus -29.3523 -3.25996 -86.7758
rradius 30.7024
rwrist -1.8197
rhand -18.4417 -9.10689
rfingers 7.12502
rthumb 7.84404 -38.9414
lclavicle -6.50399e-015 1.45113e-014
lhumerus -34.7416 5.62821 83.4928
lradius 27.3693
lwrist 17.2846
lhand -17.4646 13.8907
lfingers 7.12502
lthumb 8.78699 43.6877
rfemur -1.84429 2.09227 32.1238
rtibia 29.1163
rfoot -24.6611 -10.5691
rtoes 5.79682
lfemur -26.2432 2.83059 -14.4496
ltibia 51.231
lfoot -14.1524 11.6587
ltoes -13.3145
352
root 36.5486 16.3587 -4.46162 97.3445 -85.0945 -99.7618
lowerback -0.43887 -0.533508 6.62062
upperback 2.32995 -0.875525 0.461644
thorax 2.56691 -0.314945 -3.25664
lowerneck -4.87954 0.00850457 2.13919
upperneck 0.757238 -0.178016 1.8147
head 1.04288 -0.0619116 0.198243
rclavicle 4.77704e-015 -4.96962e-015
rhumerus -29.2998 -3.21574 -86.8579
rradius 30.7172
rwrist -1.81107
rhand -18.4392 -9.08359
rfingers 7.12502
rthumb 7.84647 -38.918
lclavicle 4.77704e-015 -4.96962e-015
lhumerus -34.7023 5.66783 83.4819
lradius 27.2878
lwrist 17.1926
lhand -17.4609 13.8964
lfingers 7.12502
lthumb 8.79061 43.6933
rfemur -1.18354 1.93583 32.3618
rtibia 28.5978
rfoot -24.7005 -10.5175
rtoes 5.62684
lfemur -26.731 2.94651 -14.5577
ltibia 49.7968
lfoot -14.374 11.7426
ltoes -13.2451
353
root 36.4322 16.3527 -4.47299 97.2031 -84.8923 -99.5542
lowerback -0.518278 -0.5172 6.85384
upperback 2.33672 -0.867213 0.508439
thorax 2.6186 -0.305006 -3.3396
lowerneck -4.93853 -0.00540911 2.14316
upperneck 0.786642 -0.199393 1.81663
head 1.0623 -0.0718424 0.197685
rclavicle 3.47873e-015 9.93923e-016
rhumerus -29.249 -3.18384 -86.9361
rradius 30.6939
rwrist -1.74053
rhand -18.4972 -8.95195
rfingers 7.12502
rthumb 7.79048 -38.7884
lclavicle 3.47873e-015 9.93923e-016
lhumerus -34.6615 5.69401 83.483
lradius 27.2156
lwrist 17.1171
lhand -17.4529 13.9012
lfingers 7.12502
lthumb 8.79835 43.6978
rfemur -0.524873 1.78546 32.6131
rtibia 28.0554
rfoot -24.719 -10.4656
rtoes 5.46478
lfemur -27.186 3.08532 -14.658
ltibia 48.3065
lfoot -14.5462 11.7536
ltoes -13.1426
354
root 36.3158 16.3465 -4.48424 97.0338 -84.6999 -99.313
lowerback -0.598514 -0.500929 7.07071
upperback 2.34292 -0.859155 0.554981
thorax 2.67041 -0.295441 -3.4136
lowerneck -5.00697 -0.0163706 2.1427
upperneck 0.818917 -0.217035 1.82203
head 1.08429 -0.0797862 0.199004
rclavicle 1.9133e-015 -2.16675e-014
rhumerus -29.2059 -3.15571 -87.0136
rradius 30.6439
rwrist -1.61291
rhand -18.6062 -8.72965
rfingers 7.12502
rthumb 7.68522 -38.57
lclavicle 1.9133e-015 -2.16675e-014
lhumerus -34.6262 5.70608 83.4968
lradius 27.1597
lwrist 17.0637
lhand -17.4436 13.9046
lfingers 7.12502
lthumb 8.80732 43.7008
rfemur 0.132397 1.63442 32.8516
rtibia 27.499
rfoot -24.7229 -10.4034
rtoes 5.32229
lfemur -27.5949 3.24036 -14.7751
ltibia 46.7573
lfoot -14.6706 11.6865
ltoes -12.9499
355
root 36.199 16.3406 -4.49544 96.8991 -84.5243 -99.1046
lowerback -0.676346 -0.484554 7.26104
upperback 2.34916 -0.850596 0.60053
thorax 2.72124 -0.286117 -3.47365
lowerneck -5.08075 -0.0253893 2.13474
upperneck 0.854262 -0.232043 1.83425
head 1.10823 -0.0862647 0.20373
rclavicle -4.06887e-015 4.13472e-014
rhumerus -29.1673 -3.12192 -87.0905
rradius 30.5614
rwrist -1.43442
rhand -18.7704 -8.41395
rfingers 7.12502
rthumb 7.52679 -38.26
lclavicle -4.06887e-015 4.13472e-014
lhumerus -34.5951 5.7146 83.5211
lradius 27.1153
lwrist 17.0289
lhand -17.4314 13.9083
lfingers 7.12502
lthumb 8.8191 43.704
rfemur 0.791668 1.47805 33.0671
rtibia 26.9349
rfoot -24.7056 -10.3267
rtoes 5.17151
lfemur -27.9534 3.41918 -14.9201
ltibia 45.1458
lfoot -14.7217 11.5789
ltoes -12.7876
